<svg width="217" height="173" viewBox="0 0 217 173" fill="none" xmlns="http://www.w3.org/2000/svg">
<path d="M22.1666 172.833C16.2312 172.833 11.1051 170.765 6.78846 166.628C2.65166 162.311 0.583252 157.185 0.583252 151.25V21.75C0.583252 15.8145 2.65166 10.7784 6.78846 6.64162C11.1051 2.32496 16.2312 0.166626 22.1666 0.166626H151.667C157.602 0.166626 162.638 2.32496 166.775 6.64162C171.092 10.7784 173.25 15.8145 173.25 21.75V70.3125L216.417 27.1458V145.854L173.25 102.687V151.25C173.25 157.185 171.092 162.311 166.775 166.628C162.638 170.765 157.602 172.833 151.667 172.833H22.1666ZM22.1666 151.25H151.667V21.75H22.1666V151.25ZM22.1666 151.25V21.75V151.25Z" fill="#00ADB5"/>
</svg>
